# xmcd
#
# Track frame offsets:
#	150
#	18560
#	31905
#	43237
#	54264
#	66030
#	77052
#	89754
#	103092
#	114844
#	126783
#	138504
#	152767
#	166765
#	178856
#	189305
#	200255
#	214132
#	222303
#	234130
#
# Disc length: 3245 seconds
#
# Revision: 1
# Processed by: cddbd v1.5.1PL0 Copyright (c) Steve Scherf et al.
# Submitted via: audiograbber 1.83.01
#
DISCID=110cab14
DTITLE=Various Artist - Good Times In Country Music Vol.8
DYEAR=1900
DGENRE=
TTITLE0=Johnny Cash - Sunday Mornin' Coming Down
TTITLE1=Claude King - Volverton Mountain
TTITLE2=Sammi Smith - Help Me Through the Night
TTITLE3=Marty Robbins - Singing the Blues
TTITLE4=Tammy Wynette - I Don't Wanna Play House
TTITLE5=Conway Twitty - Hello Darlin'
TTITLE6=David Houston - Mountain Of Love
TTITLE7=Olivia Newton-John - Take Me Home Country Road
TTITLE8=Jody Miller - He's So Fine
TTITLE9=Marie Osmond - Paper Roses
TTITLE10=Ray Price - Heartaches By The Number
TTITLE11=Loudon Wainwright III - Dead Skunk
TTITLE12=Anne Murray - What About Me
TTITLE13=Burl Ives - Funny Way Of Laughin'
TTITLE14=Bill  Anderson - I Get The Fever
TTITLE15=Charlie Walker - Pick Me Up On Your Way Down
TTITLE16=Charlie Rich - Field Of Yellow Roses
TTITLE17=Cowboy Copas - Alabam
TTITLE18=Kitty Wells - Three Ways
TTITLE19=Tom T. Hall - I Love
EXTD=
EXTT0=
EXTT1=
EXTT2=
EXTT3=
EXTT4=
EXTT5=
EXTT6=
EXTT7=
EXTT8=
EXTT9=
EXTT10=
EXTT11=
EXTT12=
EXTT13=
EXTT14=
EXTT15=
EXTT16=
EXTT17=
EXTT18=
EXTT19=
PLAYORDER=
